<?xml version="1.0" encoding="UTF-8"?>
<svg width="51px" height="51px" viewBox="0 0 51 51" version="1.1" xmlns="http://www.w3.org/2000/svg" xmlns:xlink="http://www.w3.org/1999/xlink">
    <title>Group 10</title>
    <g id="-" stroke="none" stroke-width="1" fill="none" fill-rule="evenodd">
        <g id="HOME" transform="translate(-1122.000000, -402.000000)">
            <g id="Group-3" transform="translate(1122.000000, 402.000000)">
                <circle id="Oval-Copy" fill="#FF0000" cx="25.5" cy="25.5" r="25.5"></circle>
                <path d="M21.0398676,35 C21.27456,35 21.4857831,34.9218045 21.6735369,34.7654135 L31.6244923,26.766015 C31.8748308,26.5627068 32,26.2968421 32,25.9684211 C32,25.64 31.8748308,25.3741353 31.6244923,25.1708271 L21.7204754,17.2183459 C21.5014292,17.0463158 21.2510907,16.9759398 20.9694599,17.007218 C20.6878291,17.0384962 20.4570483,17.163609 20.2771175,17.3825564 C20.0971867,17.6015038 20.0228675,17.8517293 20.0541598,18.1332331 C20.0854521,18.4147368 20.2106213,18.6415038 20.4296675,18.8135338 L29.3479765,25.9684211 L20.3827291,33.1702256 C20.1636829,33.3422556 20.0385136,33.5690226 20.0072213,33.8505263 C19.975929,34.1320301 20.0463367,34.3822556 20.2184444,34.601203 C20.4374906,34.8670677 20.7112983,35 21.0398676,35 Z" id="" fill="#FFFFFF" fill-rule="nonzero"></path>
            </g>
        </g>
    </g>
</svg>