<?xml version="1.0" encoding="utf-8"?>
<!-- Generator: Adobe Illustrator 24.2.0, SVG Export Plug-In . SVG Version: 6.00 Build 0)  -->
<svg version="1.1" id="Livello_1" xmlns="http://www.w3.org/2000/svg" xmlns:xlink="http://www.w3.org/1999/xlink" x="0px" y="0px"
	 viewBox="0 0 512 512" style="enable-background:new 0 0 512 512;" xml:space="preserve">
<style type="text/css">
	.st0{fill:#FFFFFF;}
</style>
<g>
	<g>
		<path class="st0" d="M354.2,247.4L219.1,155c-4.2-3.1-15.4-3.1-16.3,8.6v184.8c1,11.7,12.4,11.9,16.3,8.6l135.1-92.4
			C357.7,262.5,362.5,253.9,354.2,247.4L354.2,247.4z M223.7,328.7V183.3L329.8,256L223.7,328.7z"/>
		<path class="st0" d="M256.3,11C121,10.8,10.8,121,11,256.3C11.2,390.9,121.1,500.8,255.7,501C391,501.2,501.2,391,501,255.7
			C500.8,121.1,390.9,11.2,256.3,11z M307.6,474.3C144.1,511,1,367.9,37.7,204.4c18.6-83,83.7-148.1,166.7-166.7
			C367.9,1,511,144.1,474.3,307.6C455.7,390.6,390.6,455.7,307.6,474.3z"/>
	</g>
</g>
<polygon class="st0" points="219.7,176.1 219.7,334.7 335.5,255.4 "/>
</svg>
