<?xml version="1.0" encoding="UTF-8"?>
<svg width="18px" height="12px" viewBox="0 0 18 12" version="1.1" xmlns="http://www.w3.org/2000/svg" xmlns:xlink="http://www.w3.org/1999/xlink">
    <title></title>
    <g id="-" stroke="none" stroke-width="1" fill="none" fill-rule="evenodd">
        <g id="SERVIZI" transform="translate(-1267.000000, -1018.000000)" fill="#EF0001" fill-rule="nonzero">
            <path d="M1271.03987,1033 C1271.27456,1033 1271.48578,1032.9218 1271.67354,1032.76541 L1281.62449,1024.76602 C1281.87483,1024.56271 1282,1024.29684 1282,1023.96842 C1282,1023.64 1281.87483,1023.37414 1281.62449,1023.17083 L1271.72048,1015.21835 C1271.50143,1015.04632 1271.25109,1014.97594 1270.96946,1015.00722 C1270.68783,1015.0385 1270.45705,1015.16361 1270.27712,1015.38256 C1270.09719,1015.6015 1270.02287,1015.85173 1270.05416,1016.13323 C1270.08545,1016.41474 1270.21062,1016.6415 1270.42967,1016.81353 L1279.34798,1023.96842 L1270.38273,1031.17023 C1270.16368,1031.34226 1270.03851,1031.56902 1270.00722,1031.85053 C1269.97593,1032.13203 1270.04634,1032.38226 1270.21844,1032.6012 C1270.43749,1032.86707 1270.7113,1033 1271.03987,1033 Z" id="" transform="translate(1276.000000, 1024.000000) rotate(90.000000) translate(-1276.000000, -1024.000000) "></path>
        </g>
    </g>
</svg>